{
  "accessors": [
    {
      "bufferView": 2,
      "componentType": 5126,
      "count": 208,
      "max": [
        7.0157217979431152,
        6.9740066528320312,
        0.18204429745674133
      ],
      "min": [
        -2.983335018157959,
        0.01792144775390625,
        -0.18204429745674133
      ],
      "type": "VEC3"
    },
    {
      "bufferView": 2,
      "byteOffset": 2496,
      "componentType": 5126,
      "count": 208,
      "max": [
        1,
        1,
        1
      ],
      "min": [
        -1,
        -1,
        -1
      ],
      "type": "VEC3"
    },
    {
      "bufferView": 3,
      "componentType": 5126,
      "count": 208,
      "max": [
        0.99999994039535522,
        0.70225673913955688,
        0.99999946355819702,
        1
      ],
      "min": [
        -0.7071077823638916,
        -0.70922207832336426,
        -0.99999946355819702,
        1
      ],
      "type": "VEC4"
    },
    {
      "bufferView": 1,
      "componentType": 5126,
      "count": 208,
      "max": [
        0.85548758506774902,
        0.97897976636886597
      ],
      "min": [
        0.17017319798469543,
        0.050816476345062256
      ],
      "type": "VEC2"
    },
    {
      "bufferView": 0,
      "componentType": 5125,
      "count": 324,
      "max": [
        207
      ],
      "min": [
        0
      ],
      "type": "SCALAR"
    },
    {
      "bufferView": 2,
      "byteOffset": 4992,
      "componentType": 5126,
      "count": 282,
      "max": [
        1.2375625371932983,
        1.2375631332397461,
        0.27282059192657471
      ],
      "min": [
        -1.237561821937561,
        -1.237562894821167,
        -0.27282059192657471
      ],
      "type": "VEC3"
    },
    {
      "bufferView": 2,
      "byteOffset": 8376,
      "componentType": 5126,
      "count": 282,
      "max": [
        1,
        1,
        1
      ],
      "min": [
        -1,
        -1,
        -1
      ],
      "type": "VEC3"
    },
    {
      "bufferView": 3,
      "byteOffset": 3328,
      "componentType": 5126,
      "count": 282,
      "max": [
        0.99988937377929688,
        0.99691694974899292,
        0.99826478958129883,
        1
      ],
      "min": [
        -0.9999886155128479,
        -0.99714559316635132,
        -0.9982682466506958,
        1
      ],
      "type": "VEC4"
    },
    {
      "bufferView": 1,
      "byteOffset": 1664,
      "componentType": 5126,
      "count": 282,
      "max": [
        0.50825220346450806,
        1.001368522644043
      ],
      "min": [
        0.01085895299911499,
        0.0075351446866989136
      ],
      "type": "VEC2"
    },
    {
      "bufferView": 0,
      "byteOffset": 1296,
      "componentType": 5125,
      "count": 960,
      "max": [
        281
      ],
      "min": [
        0
      ],
      "type": "SCALAR"
    },
    {
      "bufferView": 2,
      "byteOffset": 11760,
      "componentType": 5126,
      "count": 282,
      "max": [
        1.2375625371932983,
        1.2375631332397461,
        0.27282059192657471
      ],
      "min": [
        -1.2375620603561401,
        -1.237562894821167,
        -0.27282059192657471
      ],
      "type": "VEC3"
    },
    {
      "bufferView": 2,
      "byteOffset": 15144,
      "componentType": 5126,
      "count": 282,
      "max": [
        1,
        1,
        1
      ],
      "min": [
        -1,
        -1,
        -1
      ],
      "type": "VEC3"
    },
    {
      "bufferView": 3,
      "byteOffset": 7840,
      "componentType": 5126,
      "count": 282,
      "max": [
        0.99988937377929688,
        0.99691694974899292,
        0.99826478958129883,
        1
      ],
      "min": [
        -0.9999886155128479,
        -0.99714559316635132,
        -0.9982682466506958,
        1
      ],
      "type": "VEC4"
    },
    {
      "bufferView": 1,
      "byteOffset": 3920,
      "componentType": 5126,
      "count": 282,
      "max": [
        0.50825220346450806,
        1.001368522644043
      ],
      "min": [
        0.01085895299911499,
        0.0075351446866989136
      ],
      "type": "VEC2"
    },
    {
      "bufferView": 0,
      "byteOffset": 5136,
      "componentType": 5125,
      "count": 960,
      "max": [
        281
      ],
      "min": [
        0
      ],
      "type": "SCALAR"
    },
    {
      "bufferView": 2,
      "byteOffset": 18528,
      "componentType": 5126,
      "count": 7066,
      "max": [
        5.6249489784240723,
        1.5706361532211304,
        2.5
      ],
      "min": [
        -5.2800388336181641,
        -2.1891169548034668,
        0
      ],
      "type": "VEC3"
    },
    {
      "bufferView": 2,
      "byteOffset": 103320,
      "componentType": 5126,
      "count": 7066,
      "max": [
        0.99993264675140381,
        1,
        1
      ],
      "min": [
        -0.99993366003036499,
        -1,
        -1
      ],
      "type": "VEC3"
    },
    {
      "bufferView": 3,
      "byteOffset": 12352,
      "componentType": 5126,
      "count": 7066,
      "max": [
        1,
        1,
        0.0003434671089053154,
        1
      ],
      "min": [
        -0.92615646123886108,
        -1,
        -1.3580009181168862e-05,
        1
      ],
      "type": "VEC4"
    },
    {
      "bufferView": 3,
      "byteOffset": 125408,
      "componentType": 5126,
      "count": 7066,
      "max": [
        1,
        1,
        1,
        1
      ],
      "min": [
        1,
        1,
        1,
        1
      ],
      "type": "VEC4"
    },
    {
      "bufferView": 1,
      "byteOffset": 6176,
      "componentType": 5126,
      "count": 7066,
      "max": [
        0.94611728191375732,
        0.99800807237625122
      ],
      "min": [
        0.0018884578021243215,
        0.0019920321647077799
      ],
      "type": "VEC2"
    },
    {
      "bufferView": 0,
      "byteOffset": 8976,
      "componentType": 5125,
      "count": 24960,
      "max": [
        7065
      ],
      "min": [
        0
      ],
      "type": "SCALAR"
    },
    {
      "bufferView": 4,
      "componentType": 5126,
      "count": 154,
      "max": [
        5
      ],
      "min": [
        0.041666667908430099
      ],
      "type": "SCALAR"
    },
    {
      "bufferView": 5,
      "componentType": 5126,
      "count": 154,
      "max": [
        9.1436500549316406,
        4.1594243049621582,
        0
      ],
      "min": [
        9.1436500549316406,
        1.8644727468490601,
        0
      ],
      "type": "VEC3"
    },
    {
      "bufferView": 4,
      "byteOffset": 616,
      "componentType": 5126,
      "count": 154,
      "max": [
        5
      ],
      "min": [
        0.041666667908430099
      ],
      "type": "SCALAR"
    },
    {
      "bufferView": 6,
      "componentType": 5126,
      "count": 154,
      "max": [
        8.3195794454999093e-17,
        1,
        8.3195794454999093e-17,
        1
      ],
      "min": [
        -8.6594110491718048e-17,
        -0.86563551425933838,
        -8.6594110491718048e-17,
        -0.48315638303756714
      ],
      "type": "VEC4"
    },
    {
      "bufferView": 4,
      "byteOffset": 1232,
      "componentType": 5126,
      "count": 154,
      "max": [
        5
      ],
      "min": [
        0.041666667908430099
      ],
      "type": "SCALAR"
    },
    {
      "bufferView": 5,
      "byteOffset": 1848,
      "componentType": 5126,
      "count": 154,
      "max": [
        -5.2173600196838379,
        4.1282052993774414,
        0
      ],
      "min": [
        -5.2173600196838379,
        1.8646676540374756,
        0
      ],
      "type": "VEC3"
    },
    {
      "bufferView": 4,
      "byteOffset": 1848,
      "componentType": 5126,
      "count": 154,
      "max": [
        5
      ],
      "min": [
        0.041666667908430099
      ],
      "type": "SCALAR"
    },
    {
      "bufferView": 6,
      "byteOffset": 2464,
      "componentType": 5126,
      "count": 154,
      "max": [
        8.3195794454999093e-17,
        1,
        8.3195794454999093e-17,
        1
      ],
      "min": [
        -8.6594110491718048e-17,
        -0.86563551425933838,
        -8.6594110491718048e-17,
        -0.48315638303756714
      ],
      "type": "VEC4"
    }
  ],
  "animations": [
    {
      "channels": [
        {
          "sampler": 0,
          "target": {
            "node": 7,
            "path": "translation"
          }
        },
        {
          "sampler": 1,
          "target": {
            "node": 7,
            "path": "rotation"
          }
        },
        {
          "sampler": 2,
          "target": {
            "node": 9,
            "path": "translation"
          }
        },
        {
          "sampler": 3,
          "target": {
            "node": 9,
            "path": "rotation"
          }
        }
      ],
      "name": "Take 001",
      "samplers": [
        {
          "input": 21,
          "interpolation": "LINEAR",
          "output": 22
        },
        {
          "input": 23,
          "interpolation": "LINEAR",
          "output": 24
        },
        {
          "input": 25,
          "interpolation": "LINEAR",
          "output": 26
        },
        {
          "input": 27,
          "interpolation": "LINEAR",
          "output": 28
        }
      ]
    }
  ],
  "asset": {
    "extras": {
      "author": "CNStestes (https://sketchfab.com/CNStestes)",
      "license": "CC-BY-4.0 (http://creativecommons.org/licenses/by/4.0/)",
      "source": "https://sketchfab.com/3d-models/g2-167ba4f327d5433eae4c3faba000b530",
      "title": "G2"
    },
    "generator": "Sketchfab-4.78.0",
    "version": "2.0"
  },
  "bufferViews": [
    {
      "buffer": 0,
      "byteLength": 108816,
      "byteOffset": 0,
      "name": "floatBufferViews",
      "target": 34963
    },
    {
      "buffer": 0,
      "byteLength": 62704,
      "byteOffset": 108816,
      "byteStride": 8,
      "name": "floatBufferViews",
      "target": 34962
    },
    {
      "buffer": 0,
      "byteLength": 188112,
      "byteOffset": 171520,
      "byteStride": 12,
      "name": "floatBufferViews",
      "target": 34962
    },
    {
      "buffer": 0,
      "byteLength": 238464,
      "byteOffset": 359632,
      "byteStride": 16,
      "name": "floatBufferViews",
      "target": 34962
    },
    {
      "buffer": 0,
      "byteLength": 2464,
      "byteOffset": 598096,
      "name": "floatBufferViews"
    },
    {
      "buffer": 0,
      "byteLength": 3696,
      "byteOffset": 600560,
      "byteStride": 12,
      "name": "floatBufferViews"
    },
    {
      "buffer": 0,
      "byteLength": 4928,
      "byteOffset": 604256,
      "byteStride": 16,
      "name": "floatBufferViews"
    }
  ],
  "buffers": [
    {
      "byteLength": 609184,
      "uri": "scene.bin"
    }
  ],
  "images": [
    {
      "uri": "textures/lambert30_baseColor.jpeg"
    },
    {
      "uri": "textures/lambert29_baseColor.jpeg"
    }
  ],
  "materials": [
    {
      "doubleSided": true,
      "emissiveFactor": [
        0,
        0,
        0
      ],
      "name": "lambert30",
      "pbrMetallicRoughness": {
        "baseColorFactor": [
          1,
          1,
          1,
          1
        ],
        "baseColorTexture": {
          "index": 0,
          "texCoord": 0
        },
        "metallicFactor": 0,
        "roughnessFactor": 0.59999999999999998
      }
    },
    {
      "doubleSided": true,
      "emissiveFactor": [
        0,
        0,
        0
      ],
      "name": "lambert29",
      "pbrMetallicRoughness": {
        "baseColorFactor": [
          1,
          1,
          1,
          1
        ],
        "baseColorTexture": {
          "index": 1,
          "texCoord": 0
        },
        "metallicFactor": 0,
        "roughnessFactor": 0.59999999999999998
      }
    }
  ],
  "meshes": [
    {
      "name": "pCube14_lambert30_0",
      "primitives": [
        {
          "attributes": {
            "NORMAL": 1,
            "POSITION": 0,
            "TANGENT": 2,
            "TEXCOORD_0": 3
          },
          "indices": 4,
          "material": 0,
          "mode": 4
        }
      ]
    },
    {
      "name": "pCylinder22_lambert29_0",
      "primitives": [
        {
          "attributes": {
            "NORMAL": 6,
            "POSITION": 5,
            "TANGENT": 7,
            "TEXCOORD_0": 8
          },
          "indices": 9,
          "material": 1,
          "mode": 4
        }
      ]
    },
    {
      "name": "pCylinder30_lambert29_0",
      "primitives": [
        {
          "attributes": {
            "NORMAL": 11,
            "POSITION": 10,
            "TANGENT": 12,
            "TEXCOORD_0": 13
          },
          "indices": 14,
          "material": 1,
          "mode": 4
        }
      ]
    },
    {
      "name": "typeMesh47_lambert30_0",
      "primitives": [
        {
          "attributes": {
            "COLOR_0": 18,
            "NORMAL": 16,
            "POSITION": 15,
            "TANGENT": 17,
            "TEXCOORD_0": 19
          },
          "indices": 20,
          "material": 0,
          "mode": 4
        }
      ]
    }
  ],
  "nodes": [
    {
      "children": [
        1
      ],
      "name": "RootNode (gltf orientation matrix)",
      "rotation": [
        -0.70710678118654746,
        -0,
        -0,
        0.70710678118654757
      ]
    },
    {
      "children": [
        2
      ],
      "name": "RootNode (model correction matrix)"
    },
    {
      "children": [
        3
      ],
      "matrix": [
        1,
        0,
        0,
        0,
        0,
        0,
        1,
        0,
        0,
        -1,
        0,
        0,
        0,
        0,
        0,
        1
      ],
      "name": "58f64db08592408c89b429e10dd3e00f.fbx"
    },
    {
      "children": [
        4
      ],
      "name": ""
    },
    {
      "children": [
        5,
        7,
        9,
        11
      ],
      "name": "RootNode"
    },
    {
      "children": [
        6
      ],
      "name": "pCube14"
    },
    {
      "mesh": 0,
      "name": "pCube14_lambert30_0"
    },
    {
      "children": [
        8
      ],
      "name": "pCylinder22",
      "rotation": [
        0,
        -1.2246468525851679e-16,
        0,
        1
      ],
      "translation": [
        9.143651008605957,
        1.8646676540374756,
        0
      ]
    },
    {
      "mesh": 1,
      "name": "pCylinder22_lambert29_0"
    },
    {
      "children": [
        10
      ],
      "name": "pCylinder30",
      "rotation": [
        0,
        -1.2246468525851679e-16,
        0,
        1
      ],
      "translation": [
        -5.2173600196838379,
        1.8646676540374756,
        0
      ]
    },
    {
      "mesh": 2,
      "name": "pCylinder30_lambert29_0"
    },
    {
      "children": [
        12
      ],
      "name": "typeMesh47",
      "scale": [
        1,
        1,
        0.11077521741390228
      ],
      "translation": [
        1.6393873691558838,
        10.086786270141602,
        0
      ]
    },
    {
      "mesh": 3,
      "name": "typeMesh47_lambert30_0"
    }
  ],
  "samplers": [
    {
      "magFilter": 9729,
      "minFilter": 9987,
      "wrapS": 10497,
      "wrapT": 10497
    }
  ],
  "scene": 0,
  "scenes": [
    {
      "name": "OSG_Scene",
      "nodes": [
        0
      ]
    }
  ],
  "textures": [
    {
      "sampler": 0,
      "source": 0
    },
    {
      "sampler": 0,
      "source": 1
    }
  ]
}

